<?xml version="1.0" standalone="no"?>
<!DOCTYPE svg PUBLIC "-//W3C//DTD SVG 20010904//EN"
 "http://www.w3.org/TR/2001/REC-SVG-20010904/DTD/svg10.dtd">
<svg version="1.0" xmlns="http://www.w3.org/2000/svg"
 width="256.000000pt" height="256.000000pt" viewBox="0 0 256.000000 256.000000"
 preserveAspectRatio="xMidYMid meet">
<metadata>
Created by potrace 1.11, written by Peter Selinger 2001-2013
</metadata>
<g transform="translate(0.000000,256.000000) scale(0.100000,-0.100000)"
fill="#000000" stroke="none">
<path d="M1129 2556 c-2 -2 -29 -6 -59 -9 -30 -4 -91 -16 -135 -27 -477 -126
-833 -515 -919 -1005 -15 -87 -18 -308 -6 -377 5 -24 11 -59 14 -79 9 -57 54
-194 91 -275 55 -120 160 -272 245 -354 75 -72 139 -127 154 -133 9 -4 16 -10
16 -14 0 -4 29 -24 65 -43 41 -22 63 -40 60 -48 -3 -8 0 -10 6 -6 14 8 89 -16
89 -29 0 -6 3 -7 7 -4 3 4 15 -1 26 -10 10 -10 21 -17 23 -15 12 7 23 0 29
-19 7 -20 7 -20 22 -2 14 17 14 17 10 -4 -3 -13 0 -26 5 -30 7 -3 8 -1 4 5 -4
7 -2 12 4 12 6 0 9 4 6 8 -3 5 1 9 9 9 17 0 20 -13 5 -22 -6 -3 -10 -10 -10
-16 0 -5 9 0 20 11 16 16 25 18 45 10 14 -5 29 -9 33 -9 4 1 9 0 12 -1 7 -2
32 -7 60 -11 14 -2 31 -13 38 -24 13 -19 13 -19 8 4 l-5 23 23 -21 c12 -11 26
-21 31 -21 5 0 0 6 -10 14 -17 13 -12 14 45 11 36 -1 70 -3 75 -5 6 -1 12 -1
15 0 3 1 30 3 60 5 55 3 107 12 122 21 4 3 5 -2 2 -10 -3 -8 -12 -12 -19 -10
-7 3 -16 1 -19 -5 -4 -6 -14 -7 -24 -4 -9 3 -14 3 -10 -2 11 -12 78 -14 75 -3
-1 6 4 13 12 16 10 3 11 0 5 -9 -6 -11 -3 -10 11 1 17 14 18 13 12 -5 -6 -16
-3 -15 13 5 l21 25 -7 -24 c-5 -21 -4 -22 9 -10 9 8 12 18 6 23 -11 12 -41 17
-34 6 6 -10 -21 -7 -32 4 -4 4 -3 7 2 6 6 -1 12 -1 15 0 3 1 16 4 30 5 14 1
33 5 42 9 9 4 22 8 30 10 7 1 19 5 26 9 6 5 17 5 22 2 6 -3 10 -1 10 4 0 6 10
11 22 11 16 0 19 -3 11 -11 -6 -6 -23 -12 -38 -12 -29 1 -29 0 4 -17 13 -6 21
-8 17 -2 -3 5 1 13 10 16 12 4 14 1 9 -14 -4 -12 -2 -20 5 -20 6 0 8 4 5 10
-3 5 -1 10 4 10 6 0 11 -6 11 -12 0 -7 7 -2 16 10 13 20 18 21 32 10 15 -12
16 -11 4 4 -8 10 -20 14 -30 11 -15 -6 -15 -5 -3 10 9 11 10 17 2 17 -11 0
-15 -13 -11 -40 1 -12 -1 -12 -11 -3 -17 17 -19 52 -2 46 7 -3 13 0 13 6 0 6
7 8 15 5 8 -4 15 -1 15 6 0 7 6 6 16 -4 20 -20 23 -20 59 4 17 11 26 20 20 20
-5 -1 -19 -7 -29 -15 -30 -23 -44 -17 -16 6 l25 21 -27 -16 c-16 -9 -28 -13
-28 -8 0 12 90 53 101 47 5 -4 9 0 9 8 0 7 11 19 25 25 14 7 31 16 38 22 7 6
37 29 67 53 184 142 352 385 423 612 42 135 52 208 52 385 0 158 -12 238 -56
373 -140 432 -493 747 -944 842 -71 15 -354 32 -366 21z"/>
<path d="M2015 300 c-3 -5 -1 -10 4 -10 6 0 11 5 11 10 0 6 -2 10 -4 10 -3 0
-8 -4 -11 -10z"/>
<path d="M476 242 c-3 -5 1 -9 9 -9 8 0 12 4 9 9 -3 4 -7 8 -9 8 -2 0 -6 -4
-9 -8z"/>
<path d="M600 200 c-12 -7 -10 -9 7 -7 12 0 19 5 17 9 -6 10 -6 10 -24 -2z"/>
<path d="M1855 200 c-3 -5 -1 -10 4 -10 6 0 11 5 11 10 0 6 -2 10 -4 10 -3 0
-8 -4 -11 -10z"/>
<path d="M1920 200 c-12 -7 -10 -9 8 -7 12 0 22 5 22 9 0 11 -12 10 -30 -2z"/>
<path d="M2033 183 c4 -3 1 -13 -6 -22 -11 -14 -10 -14 5 -2 16 12 16 31 1 31
-4 0 -3 -3 0 -7z"/>
<path d="M693 167 c0 -9 5 -13 10 -10 6 4 8 0 4 -10 -4 -12 -1 -15 15 -12 16
4 19 0 15 -17 -4 -15 -3 -18 5 -10 6 6 8 18 4 28 -4 9 -9 14 -12 11 -4 -3 -14
3 -24 15 -13 17 -17 18 -17 5z"/>
<path d="M1873 165 c0 -8 4 -12 9 -9 5 3 6 10 3 15 -9 13 -12 11 -12 -6z"/>
<path d="M640 160 c-9 -6 -10 -10 -3 -10 6 0 15 5 18 10 8 12 4 12 -15 0z"/>
<path d="M1979 153 c-12 -16 -12 -17 2 -6 9 7 19 10 22 6 4 -3 7 -1 7 5 0 17
-16 15 -31 -5z"/>
<path d="M575 140 c3 -5 8 -10 11 -10 2 0 4 5 4 10 0 6 -5 10 -11 10 -5 0 -7
-4 -4 -10z"/>
<path d="M1837 143 c-10 -10 -8 -23 4 -23 5 0 7 5 3 12 -5 8 -2 9 10 5 10 -4
15 -3 11 3 -7 12 -19 13 -28 3z"/>
<path d="M1880 130 c-7 -14 -7 -20 0 -20 5 0 10 7 10 16 0 9 5 12 12 8 7 -4 8
-3 4 4 -10 16 -14 15 -26 -8z"/>
<path d="M1775 118 c11 -13 20 -24 20 -25 1 -1 7 8 14 20 13 20 13 21 -2 8
-10 -7 -17 -9 -17 -3 0 5 -8 13 -17 16 -14 6 -14 4 2 -16z"/>
<path d="M1918 115 c-23 -20 -25 -24 -9 -22 11 1 19 6 18 12 -1 5 3 9 9 8 6
-1 11 5 11 13 0 8 -1 14 -1 14 -1 0 -13 -11 -28 -25z"/>
<path d="M676 122 c-3 -5 1 -9 9 -9 8 0 12 4 9 9 -3 4 -7 8 -9 8 -2 0 -6 -4
-9 -8z"/>
<path d="M775 120 c-3 -5 -1 -10 4 -10 6 0 11 5 11 10 0 6 -2 10 -4 10 -3 0
-8 -4 -11 -10z"/>
<path d="M1995 120 c3 -5 8 -10 11 -10 2 0 4 5 4 10 0 6 -5 10 -11 10 -5 0 -7
-4 -4 -10z"/>
<path d="M1815 99 c-8 -12 0 -22 20 -25 8 -1 13 2 9 7 -3 5 -10 6 -16 3 -7 -5
-9 -1 -5 9 7 19 2 23 -8 6z"/>
<path d="M754 89 c-3 -6 -1 -16 6 -22 10 -9 11 -9 5 2 -4 8 -2 17 6 22 9 6 10
9 2 9 -6 0 -15 -5 -19 -11z"/>
<path d="M821 84 c0 -11 3 -14 6 -6 3 7 2 16 -1 19 -3 4 -6 -2 -5 -13z"/>
<path d="M1595 92 c-4 -4 -11 -7 -16 -7 -5 0 -9 -3 -9 -7 0 -5 0 -14 0 -20 0
-7 9 -2 20 12 14 18 20 20 20 10 0 -9 -6 -22 -12 -30 -11 -12 -10 -12 3 -2 9
6 19 8 24 4 4 -4 4 4 1 18 -7 24 -6 24 8 6 9 -11 23 -21 32 -22 9 -1 14 0 11
3 -3 2 -8 3 -11 1 -3 -1 -11 6 -19 16 -15 20 -41 29 -52 18z"/>
<path d="M930 81 c0 -6 5 -11 11 -11 5 0 7 -6 3 -12 -6 -10 -5 -10 8 -1 8 7
17 12 19 10 2 -1 3 0 1 3 -2 3 -7 5 -10 5 -4 0 -13 4 -19 8 -8 5 -13 4 -13 -2z"/>
<path d="M1746 82 c-3 -5 1 -9 9 -9 8 0 12 4 9 9 -3 4 -7 8 -9 8 -2 0 -6 -4
-9 -8z"/>
<path d="M913 55 c0 -8 4 -12 9 -9 5 3 6 10 3 15 -9 13 -12 11 -12 -6z"/>
<path d="M1027 54 c2 -7 11 -10 19 -7 19 7 18 10 -5 16 -13 3 -18 1 -14 -9z"/>
<path d="M990 49 c0 -5 -5 -7 -12 -3 -7 4 -8 3 -4 -5 6 -9 11 -9 22 0 17 14
18 19 4 19 -5 0 -10 -5 -10 -11z"/>
<path d="M1073 35 c0 -8 4 -12 9 -9 5 3 6 10 3 15 -9 13 -12 11 -12 -6z"/>
<path d="M1190 41 c0 -4 12 -7 28 -6 15 1 31 -3 35 -9 6 -7 7 -6 5 3 -4 15
-68 26 -68 12z"/>
<path d="M1290 39 c0 -4 6 -9 13 -12 8 -3 14 0 14 7 0 7 -6 13 -14 13 -7 0
-13 -4 -13 -8z"/>
<path d="M1336 35 c-3 -8 -1 -15 4 -15 6 0 10 7 10 15 0 8 -2 15 -4 15 -2 0
-6 -7 -10 -15z"/>
<path d="M1371 34 c0 -11 3 -14 6 -6 3 7 2 16 -1 19 -3 4 -6 -2 -5 -13z"/>
</g>
</svg>
